# xmcd CD database file
#
# Track frame offsets:
#	150
#	24159
#	49134
#	65634
#	87009
#	105852
#	135102
#	143770
#	164470
#	188845
#	209470
#
# Disc length: 3080 seconds
#
# Revision: 0
# Processed by: cddbd v1.5.2PL0 Copyright (c) Steve Scherf et al.
# Submitted via: CDex 1.70beta2
#
DISCID=880c060b
DTITLE=Yaniv Shchori - Instrumental Mood
DYEAR=2005
DGENRE=Jazz
TTITLE0=Bossa Nova
TTITLE1=Classic Dance
TTITLE2=Free Romance
TTITLE3=Uma Rama
TTITLE4=Solares
TTITLE5=African Salsa
TTITLE6=Sunrise
TTITLE7=Sexy Night
TTITLE8=Raga Funk
TTITLE9=Valse of the Lake
TTITLE10=Just a Drop
EXTD=YEAR: 2005
EXTT0=
EXTT1=
EXTT2=
EXTT3=
EXTT4=
EXTT5=
EXTT6=
EXTT7=
EXTT8=
EXTT9=
EXTT10=
PLAYORDER=
